<svg width="448" height="980" viewBox="0 0 448 980" fill="none" xmlns="http://www.w3.org/2000/svg">
<path d="M331.551 256.156C330.804 252.905 334.011 250.181 335.198 247.062C336.911 242.669 334.495 237.705 333.66 232.961C332.721 225.646 334.676 218.253 339.108 212.358C343.524 206.544 348.679 201.331 354.443 196.85C349.393 199.545 344.058 201.667 338.537 203.176C336.518 196.936 336.518 190.219 338.537 183.979C339.811 181.079 341.92 178.663 343.37 175.896C348.731 165.66 345.172 150.944 354.179 143.695L340.47 149.23C343.399 135.524 346.827 121.906 350.752 108.375L343.634 110.44C344.732 88.475 353.256 91.1108 357.958 53.3311C367.097 86.015 374.918 94.5374 379.443 109.386C375.674 108.648 372.013 107.438 368.546 105.783C368.278 118.938 371.203 131.962 377.07 143.739C380.498 150.548 384.979 157.489 384.408 165.089L375.62 165.309L384.408 184.682C388.055 192.589 391.658 202.254 387.044 209.59C386.4 210.38 386.002 211.343 385.902 212.358C385.902 213.851 387.484 214.818 388.714 215.652C398.512 222.154 400.841 235.289 402.335 246.974L331.551 256.156Z" fill="#02284C"/>
<path d="M368.811 251.455C367.794 246.869 367.794 242.116 368.811 237.53C371.254 225.844 374.998 214.469 379.971 203.616C382.695 197.143 385.478 190.686 388.319 184.242C389.778 181.531 390.618 178.531 390.78 175.456C384.838 178.888 378.09 180.678 371.227 180.64C371.535 171.503 381.904 165.484 383.31 156.435C383.838 153.184 390.472 130.077 397.239 124.893C391.812 127.139 386.052 128.475 380.191 128.847C388.208 112.243 393.433 94.4328 395.657 76.1307C393.028 77.8485 390.002 78.862 386.869 79.074C384.365 71.562 390.384 64.2696 393.812 57.109C400.534 43.0514 397.283 13.9697 404.489 0C411.123 12.2125 412.837 31.0146 415.209 44.7647C416.773 49.8365 418.711 54.7849 421.009 59.5691C423.514 65.5436 429.094 70.4637 429.313 77.1411C425.191 73.8271 420.012 72.1113 414.726 72.3088C416.951 74.3433 418.822 76.7335 420.262 79.3816C421.784 82.3882 422.963 85.5564 423.777 88.8265C427.336 101.654 429.182 115.184 436.959 126.299C442.451 134.162 437.486 140.312 440.43 143.124C438.071 141.037 435.222 139.583 432.147 138.899C429.073 138.215 425.875 138.324 422.855 139.214C434.303 155.341 440.807 174.453 441.572 194.215C436.81 193.077 431.925 192.531 427.029 192.589C439.475 207.872 446.792 226.685 447.943 246.359C429.577 245.701 409.849 249.215 391.483 249.171C383.091 249.215 376.324 247.37 368.811 251.455Z" fill="#02284C"/>
<path d="M326.543 272.322C327.179 269.428 327.179 266.43 326.543 263.536C324.996 256.105 322.624 248.87 319.469 241.966C317.74 237.837 315.968 233.736 314.152 229.666C313.22 227.916 312.694 225.979 312.614 223.999C316.393 226.18 320.685 227.317 325.049 227.293C325.049 221.495 318.238 217.673 317.359 211.918C317.052 209.853 312.966 195.268 308.572 191.842C312.027 193.267 315.694 194.113 319.425 194.346C314.311 183.748 310.986 172.378 309.582 160.696C311.263 161.8 313.2 162.451 315.207 162.585C316.832 157.796 312.966 153.14 310.813 148.615C306.419 139.829 308.616 121.159 304.002 112.373C299.608 120.148 298.686 132.097 297.192 140.839C296.198 144.075 294.964 147.232 293.501 150.284C291.919 154.106 288.36 157.225 288.229 161.354C290.852 159.255 294.141 158.164 297.499 158.279C296.096 159.542 294.909 161.026 293.984 162.672C293.014 164.588 292.263 166.607 291.744 168.691C289.503 176.862 288.316 185.604 283.439 192.501C279.924 197.509 283.088 201.287 281.242 203.22C282.739 201.892 284.547 200.966 286.499 200.528C288.451 200.09 290.482 200.155 292.403 200.716C285.092 211.019 280.953 223.235 280.495 235.86C283.532 235.142 286.646 234.803 289.766 234.849C281.754 244.589 277.032 256.615 276.277 269.203C287.965 268.763 300.487 271.004 312.219 271.004C317.447 270.916 321.885 269.73 326.543 272.322Z" fill="#02284C"/>
<path d="M347.105 276.012C347.604 273.77 347.604 271.445 347.105 269.203C345.913 263.496 344.086 257.941 341.657 252.641C340.338 249.478 338.976 246.33 337.57 243.196C336.849 241.84 336.443 240.338 336.384 238.803C339.279 240.484 342.57 241.364 345.919 241.351C345.919 236.958 340.734 233.971 340.031 229.534C339.767 227.953 336.516 216.751 333.22 214.159C335.864 215.255 338.669 215.908 341.525 216.092C337.597 207.957 335.044 199.229 333.967 190.261C335.276 191.128 336.793 191.628 338.361 191.71C339.591 188.064 336.648 184.506 334.978 180.992C331.683 174.138 333.308 159.949 329.749 153.228C326.932 160.251 325.17 167.653 324.521 175.193C323.765 177.675 322.825 180.098 321.709 182.441C320.478 185.341 317.754 187.757 317.666 190.92C319.678 189.301 322.204 188.459 324.784 188.547C323.703 189.547 322.797 190.72 322.104 192.018C321.377 193.417 320.802 194.889 320.391 196.411C319.316 202.819 317.162 208.998 314.02 214.686C311.339 218.508 313.756 221.539 312.35 222.901C313.501 221.885 314.891 221.179 316.39 220.849C317.888 220.518 319.447 220.574 320.918 221.012C315.329 228.881 312.153 238.208 311.779 247.853C314.095 247.3 316.471 247.035 318.853 247.062C312.712 254.537 309.097 263.764 308.527 273.42C317.315 273.069 327.113 274.782 336.076 274.782C339.796 274.176 343.61 274.602 347.105 276.012V276.012Z" fill="#02284C"/>
<path d="M446.98 234.28C349.247 238.864 252.305 254.081 157.868 279.659L141.392 322.843C121.184 331.455 101.495 341.239 82.4271 352.144C61.2051 365.323 61.9081 368.969 61.9081 368.969V390.187C44.6272 396.132 29.0507 406.188 16.5202 419.489C-3.99875 441.454 0.395048 440.707 0.395048 440.707L32.6015 510.995L144.028 532.213C146.414 539.22 149.948 545.782 154.485 551.63C161.076 559.318 170.962 569.202 170.962 569.202L211.604 575.792L254.444 664.75L233.881 770.929L192.14 854.396L178.212 979.597H446.936L446.98 234.28Z" fill="#073255"/>
<path d="M0.439453 440.751L32.6459 511.039L144.072 532.257L170.567 511.786V491.271L205.014 479.585L213.055 465.659L267.23 446.638V434.908L103.21 445.891L87.8319 438.555L0.439453 440.751Z" fill="#0E4266"/>
<path d="M61.9531 390.232L127.728 385.136L139.108 370.858L185.243 362.775L188.143 355.483L61.9531 369.013V390.232Z" fill="#0E4266"/>
<path d="M141.393 322.887L172.764 314.848L181.2 303.382L202.422 297.979L206.464 288.094L157.869 279.704L141.393 322.887Z" fill="#0E4266"/>
<path d="M211.649 575.836L255.543 580.624L263.848 597.449H275.799L278.962 620.161L254.489 664.794L211.649 575.836Z" fill="#0E4266"/>
<path d="M192.186 854.44L215.561 848.597L237.134 822.942L263.848 812.706L295.088 770.226H258.444L239.155 743.824L233.927 770.973L192.186 854.44Z" fill="#0E4266"/>
<path d="M223.782 267.622H54.9727V279.703H223.782V267.622Z" fill="#02284C"/>
<path d="M228 187.274L100.36 168.472V267.622H228V187.274Z" fill="#02284C"/>
<path d="M77.4169 160.677L76.1377 169.369L250.973 195.088L252.253 186.396L77.4169 160.677Z" fill="#02284C"/>
<path d="M81.1596 273.641H72.3721V364.269H81.1596V273.641Z" fill="#02284C"/>
<path d="M114.532 271.087L73.1611 330.557L80.3753 335.574L121.746 276.104L114.532 271.087Z" fill="#02284C"/>
<path d="M158.579 204.275H128.569V234.279H158.579V204.275Z" fill="#FBE57F"/>
</svg>
