<svg width="456" height="293" viewBox="0 0 456 293" fill="none" xmlns="http://www.w3.org/2000/svg">
<path style="mix-blend-mode:screen" d="M455.12 67.8728C411.792 66.1209 368.406 69.3792 325.826 77.583L317.782 79.1021L309.828 80.9488C304.525 82.1999 299.163 83.3317 293.89 84.6721C283.433 87.6507 272.708 90.2421 262.43 93.9057L246.819 99.0885L231.477 105.046C221.11 108.769 211.308 113.713 201.179 118.181C196.085 120.326 191.318 123.096 186.284 125.598L171.597 133.283C162.153 138.972 152.53 144.572 143.176 150.559L129.472 160.03C124.943 163.247 120.207 166.256 115.827 169.711C106.89 176.353 98.2803 183.532 89.7302 190.77C55.5728 220.461 25.4644 254.509 0.177734 292.042C21.039 251.071 47.1909 213.017 77.9627 178.855C85.7978 170.336 93.752 161.847 102.153 153.835C106.235 149.695 110.733 145.972 115.023 141.921L128.101 130.274C137.039 122.828 146.393 115.739 155.628 108.501L170.077 98.4928C174.933 95.2163 179.67 91.642 184.734 88.6932C194.804 82.736 204.695 76.1235 215.181 70.8216L230.792 62.422L246.79 54.7968C257.395 49.4949 268.478 45.3547 279.56 40.6783C285.071 38.5039 290.672 36.5678 296.273 34.5126L304.644 31.534L313.135 28.8235C358.707 14.0738 405.832 4.63862 453.571 0.705566L455.12 67.8728Z" fill="url(#paint0_linear_656_253)"/>
<defs>
<linearGradient id="paint0_linear_656_253" x1="24.1272" y1="88.9373" x2="417.475" y2="200.56" gradientUnits="userSpaceOnUse">
<stop stop-color="#ffe124"/>
<stop offset="0.05" stop-color="#efce00"/>
<stop offset="0.1" stop-color="#e1c100"/>
<stop offset="0.5" stop-color="#ddbe01" stop-opacity="0.5"/>
<stop offset="0.67" stop-color="#ad9502" stop-opacity="0.15"/>
<stop offset="1" stop-color="#1e4157" stop-opacity="0"/>
</linearGradient>
</defs>
</svg>
