<svg width="3404" height="816" viewBox="0 0 3404 816" fill="none" xmlns="http://www.w3.org/2000/svg">
<g style="mix-blend-mode:screen">
<path d="M7.56582 267.791C9.95154 267.791 11.8856 265.858 11.8856 263.472C11.8856 261.087 9.95154 259.153 7.56582 259.153C5.1801 259.153 3.24609 261.087 3.24609 263.472C3.24609 265.858 5.1801 267.791 7.56582 267.791Z" fill="#FDDA01"/>
</g>
<g style="mix-blend-mode:screen">
<path d="M1806.35 139.925C1804.41 141.318 1803.97 144.017 1805.36 145.953C1806.75 147.89 1809.45 148.331 1811.39 146.938C1813.33 145.545 1813.77 142.846 1812.37 140.909C1810.98 138.973 1808.28 138.532 1806.35 139.925Z" fill="#FDDA01"/>
</g>
<g style="mix-blend-mode:screen">
<path d="M359.252 405.313C361.638 405.313 363.572 403.379 363.572 400.994C363.572 398.609 361.638 396.675 359.252 396.675C356.866 396.675 354.932 398.609 354.932 400.994C354.932 403.379 356.866 405.313 359.252 405.313Z" fill="#FDDA01"/>
</g>
<g style="mix-blend-mode:screen">
<path d="M1440.53 233.591C1438.59 234.984 1438.15 237.683 1439.54 239.62C1440.94 241.556 1443.64 241.997 1445.57 240.604C1447.51 239.212 1447.95 236.513 1446.56 234.576C1445.17 232.639 1442.47 232.199 1440.53 233.591Z" fill="#FDDA01"/>
</g>
<g style="mix-blend-mode:screen">
<path d="M462.032 181.114C464.418 181.114 466.352 179.181 466.352 176.796C466.352 174.41 464.418 172.477 462.032 172.477C459.646 172.477 457.712 174.41 457.712 176.796C457.712 179.181 459.646 181.114 462.032 181.114Z" fill="#FDDA01"/>
</g>
<g style="mix-blend-mode:screen">
<path d="M3394.97 115.2C3393.04 116.593 3392.59 119.292 3393.99 121.229C3395.38 123.165 3398.08 123.606 3400.02 122.213C3401.95 120.821 3402.39 118.121 3401 116.185C3399.61 114.248 3396.91 113.807 3394.97 115.2Z" fill="#FDDA01"/>
</g>
<g style="mix-blend-mode:screen">
<path d="M920.596 37.4626C922.981 37.4626 924.915 35.529 924.915 33.1437C924.915 30.7584 922.981 28.8247 920.596 28.8247C918.21 28.8247 916.276 30.7584 916.276 33.1437C916.276 35.529 918.21 37.4626 920.596 37.4626Z" fill="#FDDA01"/>
</g>
<g style="mix-blend-mode:screen">
<path d="M3195.6 258.564C3193.67 259.956 3193.22 262.655 3194.62 264.592C3196.01 266.529 3198.71 266.969 3200.65 265.577C3202.58 264.184 3203.02 261.485 3201.63 259.548C3200.24 257.612 3197.54 257.171 3195.6 258.564Z" fill="#FDDA01"/>
</g>
<g style="mix-blend-mode:screen">
<path d="M179.492 82.4025C181.532 82.4025 183.186 80.7489 183.186 78.7091C183.186 76.6692 181.532 75.0156 179.492 75.0156C177.452 75.0156 175.798 76.6692 175.798 78.7091C175.798 80.7489 177.452 82.4025 179.492 82.4025Z" fill="#FDDA01"/>
</g>
<g style="mix-blend-mode:screen">
<path d="M13.9125 87.258C16.2982 87.258 18.2322 85.3244 18.2322 82.9391C18.2322 80.5538 16.2982 78.6201 13.9125 78.6201C11.5268 78.6201 9.59277 80.5538 9.59277 82.9391C9.59277 85.3244 11.5268 87.258 13.9125 87.258Z" fill="#FDDA01"/>
</g>
<g style="mix-blend-mode:screen">
<path d="M90.8928 497.082C92.7191 497.082 94.1997 495.602 94.1997 493.776C94.1997 491.95 92.7191 490.47 90.8928 490.47C89.0665 490.47 87.5859 491.95 87.5859 493.776C87.5859 495.602 89.0665 497.082 90.8928 497.082Z" fill="#FDDA01"/>
</g>
<g style="mix-blend-mode:screen">
<path d="M1604.83 2.41349C1603.35 3.47972 1603.01 5.54589 1604.08 7.0284C1605.14 8.51092 1607.21 8.84838 1608.69 7.78215C1610.17 6.71592 1610.51 4.64975 1609.45 3.16723C1608.38 1.68472 1606.31 1.34725 1604.83 2.41349Z" fill="#FDDA01"/>
</g>
<g style="mix-blend-mode:screen">
<path d="M468.437 161.783C470.263 161.783 471.744 160.303 471.744 158.477C471.744 156.651 470.263 155.171 468.437 155.171C466.611 155.171 465.13 156.651 465.13 158.477C465.13 160.303 466.611 161.783 468.437 161.783Z" fill="#FDDA01"/>
</g>
<g style="mix-blend-mode:screen">
<path d="M927.001 18.1315C928.827 18.1315 930.307 16.6512 930.307 14.8253C930.307 12.9993 928.827 11.519 927.001 11.519C925.174 11.519 923.694 12.9993 923.694 14.8253C923.694 16.6512 925.174 18.1315 927.001 18.1315Z" fill="#FDDA01"/>
</g>
<g style="mix-blend-mode:screen">
<path d="M90.8928 804.35C92.7191 804.35 94.1997 802.87 94.1997 801.044C94.1997 799.218 92.7191 797.737 90.8928 797.737C89.0665 797.737 87.5859 799.218 87.5859 801.044C87.5859 802.87 89.0665 804.35 90.8928 804.35Z" fill="#FDDA01"/>
</g>
<g style="mix-blend-mode:screen">
<path d="M2587.58 25.1922C2589.41 25.1922 2590.89 23.7119 2590.89 21.8859C2590.89 20.0599 2589.41 18.5796 2587.58 18.5796C2585.76 18.5796 2584.28 20.0599 2584.28 21.8859C2584.28 23.7119 2585.76 25.1922 2587.58 25.1922Z" fill="#FDDA01"/>
</g>
<g style="mix-blend-mode:screen">
<path d="M3098.15 76.7636C3096.66 77.8298 3096.33 79.896 3097.39 81.3785C3098.46 82.861 3100.52 83.1985 3102.01 82.1322C3103.49 81.066 3103.83 78.9998 3102.76 77.5173C3101.7 76.0348 3099.63 75.6974 3098.15 76.7636Z" fill="#FDDA01"/>
</g>
<g style="mix-blend-mode:screen">
<path d="M2.02582 74.6583C3.14464 74.6583 4.05162 73.7515 4.05162 72.6329C4.05162 71.5142 3.14464 70.6074 2.02582 70.6074C0.906993 70.6074 0 71.5142 0 72.6329C0 73.7515 0.906993 74.6583 2.02582 74.6583Z" fill="#FDDA01"/>
</g>
<g style="mix-blend-mode:screen">
<path d="M503.323 157.702C504.441 157.702 505.348 156.795 505.348 155.677C505.348 154.558 504.441 153.651 503.323 153.651C502.204 153.651 501.297 154.558 501.297 155.677C501.297 156.795 502.204 157.702 503.323 157.702Z" fill="#FDDA01"/>
</g>
<g style="mix-blend-mode:screen">
<path d="M961.886 14.0504C963.005 14.0504 963.912 13.1436 963.912 12.025C963.912 10.9063 963.005 9.99951 961.886 9.99951C960.767 9.99951 959.86 10.9063 959.86 12.025C959.86 13.1436 960.767 14.0504 961.886 14.0504Z" fill="#FDDA01"/>
</g>
<g style="mix-blend-mode:screen">
<path d="M499.211 214.056C500.33 214.056 501.237 213.149 501.237 212.031C501.237 210.912 500.33 210.005 499.211 210.005C498.092 210.005 497.185 210.912 497.185 212.031C497.185 213.149 498.092 214.056 499.211 214.056Z" fill="#FDDA01"/>
</g>
<g style="mix-blend-mode:screen">
<path d="M3345.56 110.161C3344.65 110.814 3344.44 112.079 3345.09 112.988C3345.75 113.896 3347.01 114.103 3347.92 113.449C3348.83 112.796 3349.04 111.53 3348.38 110.622C3347.73 109.714 3346.46 109.507 3345.56 110.161Z" fill="#FDDA01"/>
</g>
<g style="mix-blend-mode:screen">
<path d="M396.521 533.696C397.64 533.696 398.547 532.789 398.547 531.671C398.547 530.552 397.64 529.645 396.521 529.645C395.402 529.645 394.495 530.552 394.495 531.671C394.495 532.789 395.402 533.696 396.521 533.696Z" fill="#FDDA01"/>
</g>
<g style="mix-blend-mode:screen">
<path d="M1335.32 151.121C1334.41 151.774 1334.21 153.04 1334.86 153.948C1335.51 154.857 1336.78 155.063 1337.69 154.41C1338.6 153.757 1338.8 152.491 1338.15 151.583C1337.5 150.675 1336.23 150.468 1335.32 151.121Z" fill="#FDDA01"/>
</g>
<g style="mix-blend-mode:screen">
<path d="M2731.3 221.631C2732.42 221.631 2733.33 220.724 2733.33 219.605C2733.33 218.486 2732.42 217.58 2731.3 217.58C2730.18 217.58 2729.28 218.486 2729.28 219.605C2729.28 220.724 2730.18 221.631 2731.3 221.631Z" fill="#FDDA01"/>
</g>
<g style="mix-blend-mode:screen">
<path d="M2866.78 1.18283C2865.87 1.83601 2865.66 3.10174 2866.32 4.00996C2866.97 4.91817 2868.24 5.12495 2869.14 4.47177C2870.05 3.81859 2870.26 2.55279 2869.61 1.64458C2868.95 0.73636 2867.69 0.529647 2866.78 1.18283Z" fill="#FDDA01"/>
</g>
<g style="mix-blend-mode:screen">
<path d="M100.009 815.252C101.128 815.252 102.035 814.345 102.035 813.227C102.035 812.108 101.128 811.201 100.009 811.201C98.8899 811.201 97.9829 812.108 97.9829 813.227C97.9829 814.345 98.8899 815.252 100.009 815.252Z" fill="#FDDA01"/>
</g>
<g style="mix-blend-mode:screen">
<path d="M2596.7 36.0943C2597.82 36.0943 2598.72 35.1875 2598.72 34.0689C2598.72 32.9502 2597.82 32.0435 2596.7 32.0435C2595.58 32.0435 2594.67 32.9502 2594.67 34.0689C2594.67 35.1875 2595.58 36.0943 2596.7 36.0943Z" fill="#FDDA01"/>
</g>
<g style="mix-blend-mode:screen">
<path d="M3084.38 73.2347C3083.47 73.8879 3083.26 75.1536 3083.92 76.0618C3084.57 76.97 3085.84 77.1767 3086.74 76.5235C3087.65 75.8703 3087.86 74.6046 3087.21 73.6964C3086.55 72.7882 3085.29 72.5815 3084.38 73.2347Z" fill="#FDDA01"/>
</g>
</svg>
